<svg id="Layer_1" data-name="Layer 1" xmlns="http://www.w3.org/2000/svg" xmlns:xlink="http://www.w3.org/1999/xlink" viewBox="0 0 1500 1000"><defs><style>.cls-1{fill:none;}.cls-2{clip-path:url(#clip-path);}.cls-3{fill:#ce1126;}.cls-4{fill:#e41e20;}</style><clipPath id="clip-path"><circle class="cls-1" cx="750" cy="500" r="331"/></clipPath></defs><title>Albania</title><g class="cls-2"><rect class="cls-3" x="215.88" y="163.21" width="1039.91" height="693.27"/><polygon id="_2" data-name="2" class="cls-4" points="1275.35 842.08 1275.35 157.92 249.12 157.92 249.12 842.08 1275.35 842.08"/><path id="_1" data-name="1" d="M693,325.33c-5.56-.1-14.78,1.77-14.58,6-15.48-2.65-17.09,3.75-16.18,9.44,1.47-2.26,3.27-3.49,4.64-3.72a9.4,9.4,0,0,1,6.43,1.68,25.66,25.66,0,0,1,5.72,4.89c-5.46,1.31-9.68.47-14-.28a19.67,19.67,0,0,1-6.82-2.79c-1.76-1.23-2.31-2.38-5.07-5.21-3.26-3.34-6.73-2.4-5.65,2.78,2.5,4.82,6.67,7,11.93,7.83A61,61,0,0,0,670,347.3c4.27,0,9.07-.62,11.68-.07-1.57,1-3.34,2.68-6.86,3.35s-9-2.12-12.32-2.89c.42,2.79,3.93,5.39,10.86,6.75,11.37,2.48,20.83,4.36,27.08,7.75a44.61,44.61,0,0,1,13,11A25.8,25.8,0,0,1,719.67,386c1.15,10.58-2.54,16.53-9.39,18.36-3.43.91-9.53-.81-11.76-3.43s-4.4-7.13-3.78-14.18c.6-2.77,3.76-10,1.07-11.47a326.09,326.09,0,0,0-38.41-17.93c-3-1.13-5.43,2.92-6.39,4.5-18.53-2.26-35.24-14.8-42.76-28.15-5.13-9.1-13.57,0-12.15,8.61,2.29,9.58,9.6,16.52,18.36,21.43,9,4.95,20.24,9.83,31.62,9.57,6.13,1.16,6.07,9.09-1.29,10.58-14.38.09-25.85-.27-36.69-10.72-8.21-7.5-12.84,1.44-10.46,6.5,4,15.62,26.3,20,48.83,14.94,8.73-1.45,3.5,7.9,1,8-9.42,6.75-26.28,13.36-41.12-.07-6.79-5.2-11.39-.83-8.86,6.68,6.59,19.58,31.78,15.46,49.08,5.82,4.46-2.48,8.5,3.29,3.08,7.68-21.52,15-32.28,15.21-42,9.43-12.15-4.79-13.22,8.69-6,13.11,8,4.92,28.43,1.23,43.4-8.18,6.42-4.77,6.71,2.69,2.65,5.65-17.77,15.35-24.78,19.4-43.3,16.89-9.19-.71-9.05,10.61-1.82,15,9.86,6.06,29.13-4,44.08-16.39,6.29-3.37,7.33,2.15,4.22,8.68-9.14,11.53-17.71,18.32-26,21.47a32.45,32.45,0,0,1-21.83.71c-6.86-2.35-7.72,4.77-3.93,11.26,2.28,3.9,11.75,5.16,22,1.53s21.19-12.12,28.72-22.08c6.55-5.73,5.74,2,2.75,7.4-15.08,23.84-28.88,32.69-47,31.19-8.05-1.37-9.88,4.89-4.75,10.68,9,7.48,20.29,7.24,30.15-.14,8.77-8.46,25.54-26.66,34.33-36.41,6.2-4.94,8.18-.07,6.36,10-1.65,5.75-5.79,11.8-17.07,16.22-7.71,4.4-1.92,10.46,3.85,10.57,3.18.06,9.64-3.65,14.58-9.21,6.5-7.32,6.89-12.23,10.47-23.62,3.38-5.55,9.43-3,9.43,2.86-2.9,11.4-5.39,13.45-11.25,18.11-5.61,5.27,3.9,7,7.1,4.86,9.28-6.25,12.66-14.33,15.76-21.68,2.24-5.31,8.72-2.74,5.72,5.93-7.19,20.7-19,28.86-39.66,33-2.09.37-3.37,1.61-2.64,4,2.77,2.88,5.55,5.49,8.32,8.36-12.77,3.72-23.15,5.81-35.94,9.54-6.27-4.12-11.34-7.6-17.61-11.72-1.65-3.87-2.43-9.77-11.68-5.61-6.27-2.9-9.17-1.83-12.65,1.07,5,.19,7.21,1.53,9.18,3.82,2.58,6.78,8.51,7.43,14.58,5.51,4,3.32,6.05,5.88,10,9.21-7.37-.25-12.51-.38-19.86-.6-7-7.54-12.62-7.13-17.65-1.22-3.83.59-5.45.67-8.07,5.32,4.12-1.69,6.71-2.2,8.5-.35,7.46,4.32,12.34,3.36,16,0,7.2.44,13.69.81,20.9,1.28-2.65,2.25-6.28,3.45-8.93,5.72-10.82-3.09-16.46,1.07-18.36,9.89a20.16,20.16,0,0,0-1.5,11c1-3.48,2.72-6.48,5.82-8.36,9.64,2.45,13.26-1.48,13.79-7.25,4.64-3.79,11.65-4.63,16.29-8.46,5.42,1.73,8,2.81,13.5,4.53,1.94,5.9,6.34,8.24,13.47,6.72,8.49.27,7,3.75,7.68,6.54,2.26-4,2.19-7.9-3-11.44-1.9-5.17-6.12-7.52-11.64-4.53-5.2-1.48-6.57-3.6-11.76-5.08,13.11-4.17,22.41-5.11,35.51-9.28,3.28,3.09,5.88,5.31,9.18,8.07,1.75,1,3.41,1.3,4.44,0,8.2-11.88,11.87-22.35,19.5-30.19,2.92-3.24,6.6-7.61,10.68-8.68a6.21,6.21,0,0,1,6.15,1.54c1.6,1.74,2.85,5,2.32,9.75-.77,6.88-2.43,9.06-4.36,13.18s-4.29,6.67-6.72,9.83c-4.85,6.32-11.25,10-15,12.46-7.57,5-10.78,2.78-16.64,2.47-7.59.85-9.6,4.54-3.4,9.65a23.34,23.34,0,0,0,15.26,2.6c3.64-.67,7.9-5.37,10.93-7.89,3.41-4,9.08.73,5.21,5.32-7,8.34-14,13.84-22.68,13.72-9.09,1.22-7.39,6.33-1.36,8.82C707.2,613.43,717,605,722,599.51c3.85-4.2,6.58-4.37,5.9,2.15-3.82,11.79-9,16.34-17.54,16.93-6.91-.64-7,4.69-1.93,8.29,11.5,8,19.83-5.6,23.72-13.79,2.77-7.39,7-3.88,7.46,2.21.06,8.14-3.62,14.79-13.46,23.12,7.53,12,16.32,24.21,23.86,36.26,7.55-12,16.33-24.26,23.86-36.27-9.84-8.32-13.52-15-13.46-23.11.44-6.09,4.69-9.6,7.46-2.21,3.89,8.19,12.22,21.75,23.72,13.79,5-3.6,5-8.93-1.93-8.29-8.51-.59-13.72-5.15-17.54-16.94-.68-6.51,2-6.34,5.9-2.14,5,5.52,14.79,13.92,25.65,9.43,6-2.49,7.73-7.6-1.36-8.82-8.65.12-15.67-5.38-22.68-13.72-3.87-4.59,1.8-9.27,5.21-5.32,3,2.52,7.29,7.22,10.93,7.89A23.29,23.29,0,0,0,811,586.36c6.2-5.1,4.19-8.79-3.4-9.64-5.86.31-9.07,2.47-16.64-2.47-3.79-2.47-10.19-6.14-15-12.46-2.43-3.16-4.79-5.7-6.72-9.83s-3.59-6.3-4.36-13.18c-.53-4.8.72-8,2.32-9.75a6.21,6.21,0,0,1,6.15-1.54c4.08,1.07,7.76,5.44,10.68,8.68,7.63,7.84,11.3,18.31,19.5,30.19,1,1.3,2.69,1,4.44,0,3.3-2.76,5.9-5,9.18-8.07,13.1,4.16,22.4,5.11,35.51,9.28-5.19,1.48-6.55,3.6-11.76,5.08-5.52-3-9.74-.64-11.64,4.53-5.23,3.54-5.3,7.43-3,11.44.69-2.79-.81-6.28,7.68-6.54,7.13,1.52,11.53-.82,13.47-6.72,5.46-1.72,8.08-2.8,13.5-4.54,4.64,3.84,11.65,4.68,16.29,8.47.53,5.77,4.15,9.7,13.79,7.25,3.1,1.88,4.78,4.88,5.83,8.36a20.34,20.34,0,0,0-1.5-11c-1.91-8.82-7.55-13-18.37-9.89-2.65-2.27-6.28-3.47-8.93-5.72,7.21-.47,13.7-.84,20.9-1.28,3.7,3.36,8.58,4.32,16,0,1.79-1.85,4.38-1.34,8.5.35-2.62-4.65-4.24-4.73-8.07-5.32-5-5.91-10.63-6.32-17.65,1.21-7.35.23-12.49.36-19.86.61,3.95-3.33,6-5.89,10-9.21,6.07,1.92,12,1.27,14.58-5.51,2-2.29,4.15-3.63,9.18-3.82-3.48-2.9-6.38-4-12.65-1.07-9.25-4.16-10,1.74-11.68,5.61-6.27,4.11-11.34,7.6-17.61,11.72-12.79-3.73-23.17-5.82-35.94-9.54,2.77-2.87,5.55-5.48,8.32-8.36.73-2.43-.55-3.67-2.64-4-20.66-4.18-32.47-12.34-39.65-33-3-8.67,3.47-11.24,5.71-5.93,3.1,7.35,6.48,15.43,15.76,21.68,3.2,2.16,12.71.41,7.1-4.86-5.86-4.66-8.35-6.71-11.25-18.11,0-5.82,6.05-8.41,9.43-2.86,3.59,11.39,4,16.3,10.47,23.62,4.94,5.56,11.4,9.27,14.58,9.21,5.77-.11,11.56-6.17,3.85-10.57-11.28-4.42-15.42-10.47-17.07-16.22-1.82-10,.16-14.91,6.36-10C843.46,502.3,860.23,520.5,869,529c9.86,7.38,21.13,7.62,30.15.14,5.13-5.79,3.3-12.05-4.75-10.68-18.17,1.5-32-7.34-47-31.19-3-5.42-3.8-13.13,2.75-7.39,7.53,10,18.5,18.45,28.72,22.07s19.69,2.37,22-1.53c3.79-6.48,2.93-13.61-3.93-11.26a32.45,32.45,0,0,1-21.83-.71c-8.25-3.15-16.83-9.94-26-21.47-3.11-6.53-2.07-12.05,4.22-8.68,15,12.4,34.22,22.45,44.08,16.39,7.23-4.43,7.37-15.75-1.82-15-18.52,2.5-25.53-1.55-43.3-16.9-4.06-3-3.77-10.42,2.65-5.65,15,9.41,35.38,13.1,43.4,8.18,7.22-4.42,6.15-17.9-6-13.11-9.7,5.78-20.46,5.6-42-9.43-5.42-4.39-1.38-10.16,3.08-7.68,17.3,9.64,42.49,13.76,49.08-5.82,2.53-7.51-2.06-11.88-8.86-6.68-14.84,13.43-31.7,6.82-41.12.07-2.46-.1-7.69-9.45,1-8,22.53,5,44.81.68,48.83-14.94,2.38-5.06-2.25-14-10.46-6.5-10.84,10.45-22.31,10.81-36.69,10.72-7.36-1.49-7.42-9.42-1.29-10.57,11.38.25,22.62-4.63,31.62-9.58,8.76-4.91,16.07-11.85,18.36-21.43,1.42-8.59-7-17.71-12.15-8.61C884.23,347,867.52,359.58,849,361.84c-1-1.58-3.41-5.63-6.39-4.5a326.09,326.09,0,0,0-38.41,17.93c-2.69,1.49.47,8.7,1.08,11.47.61,7.05-1.56,11.56-3.79,14.18s-8.33,4.34-11.75,3.43c-6.86-1.83-10.55-7.78-9.4-18.36a25.8,25.8,0,0,1,6.25-12.83,44.38,44.38,0,0,1,13-11c6.24-3.4,15.7-5.28,27.07-7.76,6.93-1.36,10.44-4,10.87-6.75-3.32.77-8.76,3.58-12.33,2.89s-5.29-2.37-6.86-3.35c2.61-.55,7.41.07,11.68.07A61,61,0,0,0,840.6,346c5.26-.87,9.43-3,11.93-7.83,1.08-5.18-2.39-6.12-5.65-2.78-2.76,2.83-3.31,4-5.07,5.21a19.67,19.67,0,0,1-6.82,2.79c-4.29.75-8.51,1.59-14,.28a25.66,25.66,0,0,1,5.72-4.89,9.4,9.4,0,0,1,6.43-1.68c1.37.23,3.17,1.46,4.64,3.72.91-5.69-.7-12.09-16.18-9.43.2-4.27-9-6.14-14.58-6-3.15.05-9.6,1.9-14.25,4.07a102.8,102.8,0,0,1-23.22,4.47c4.94,4.15,5.91,4.38,10.89,7.93a36,36,0,0,0-16,12.14c6.59.32,8.76-.24,11,.72-9.18,2.66-13.33,4.21-18.18,9.07a43.24,43.24,0,0,1,5.36,1.18c1.12.42.66,1-.11,1.82-2.1,1.32-10.16,10.81-12.54,13-2.38-2.19-10.43-11.68-12.54-13-.77-.82-1.23-1.4-.11-1.82a43.24,43.24,0,0,1,5.36-1.18c-4.85-4.86-9-6.41-18.18-9.07,2.24-1,4.41-.4,11-.72a36,36,0,0,0-16-12.14c5-3.55,6-3.78,10.89-7.93a102.8,102.8,0,0,1-23.22-4.47C702.55,327.23,696.1,325.38,693,325.33Zm.82,10c4.52,0,7.32,1.55,7.32,3.43s-2.8,3.47-7.32,3.47-7.36-1.7-7.36-3.61S689.27,335.29,693.77,335.29Zm112.46,0c4.5,0,7.36,1.41,7.36,3.29s-2.86,3.61-7.36,3.61-7.32-1.55-7.32-3.47S801.71,335.29,806.23,335.29Z"/></g></svg>