<svg width="22" height="22" viewBox="0 0 22 22" fill="none" xmlns="http://www.w3.org/2000/svg">
<path d="M11.0007 14.6666C13.0257 14.6666 14.6673 13.025 14.6673 11C14.6673 8.97494 13.0257 7.33331 11.0007 7.33331C8.97561 7.33331 7.33398 8.97494 7.33398 11C7.33398 13.025 8.97561 14.6666 11.0007 14.6666Z" stroke="white" stroke-width="2" stroke-linecap="round" stroke-linejoin="round"/>
<path d="M14.6673 7.33335V11.9167C14.6673 12.646 14.9571 13.3455 15.4728 13.8612C15.9885 14.377 16.688 14.6667 17.4173 14.6667C18.1467 14.6667 18.8461 14.377 19.3619 13.8612C19.8776 13.3455 20.1673 12.646 20.1673 11.9167V11C20.1672 8.93113 19.4672 6.92313 18.1812 5.30251C16.8951 3.68189 15.0987 2.54398 13.0839 2.07379C11.0692 1.60361 8.9546 1.82881 7.08406 2.71277C5.21352 3.59674 3.69702 5.08748 2.78115 6.9426C1.86527 8.79772 1.60388 10.9081 2.03948 12.9306C2.47508 14.9531 3.58205 16.7688 5.1804 18.0824C6.77875 19.396 8.77447 20.1303 10.8431 20.1659C12.9116 20.2015 14.9314 19.5362 16.574 18.2784" stroke="white" stroke-width="2" stroke-linecap="round" stroke-linejoin="round"/>
</svg>
