<svg width="20" height="20" viewBox="0 0 20 20" fill="none" xmlns="http://www.w3.org/2000/svg">
<g clip-path="url(#clip0_2066_4747)">
<path d="M9.5143 0.0116883C4.23232 0.263186 0.0641006 4.66205 0.0801242 9.95001C0.085003 11.5606 0.473825 13.0808 1.15973 14.424L0.106623 19.5359C0.0496555 19.8124 0.299049 20.0545 0.573745 19.9894L5.5828 18.8027C6.8697 19.4437 8.31517 19.814 9.84496 19.8373C15.2436 19.9198 19.7452 15.6331 19.9135 10.2364C20.0939 4.45155 15.3194 -0.264777 9.5143 0.0116883ZM15.4912 15.4113C14.0242 16.8782 12.0738 17.6861 9.99926 17.6861C8.78454 17.6861 7.62156 17.4135 6.54253 16.876L5.84496 16.5286L2.7739 17.2562L3.42034 14.1181L3.07667 13.4451C2.51651 12.3481 2.23249 11.1618 2.23249 9.9193C2.23249 7.84471 3.04036 5.89433 4.50731 4.42734C5.96114 2.97351 7.94337 2.15248 9.99941 2.15248C12.074 2.15253 14.0243 2.9604 15.4912 4.42729C16.9582 5.89424 17.766 7.84461 17.7661 9.91916C17.766 11.9752 16.945 13.9575 15.4912 15.4113Z" fill="white"/>
<path d="M14.8137 12.0703L12.8924 11.5187C12.6398 11.4461 12.3677 11.5178 12.1837 11.7053L11.7138 12.184C11.5157 12.3859 11.2151 12.4507 10.9529 12.3447C10.044 11.9768 8.13207 10.2769 7.64381 9.4266C7.50295 9.18132 7.52624 8.87467 7.6992 8.65087L8.1094 8.12018C8.27011 7.91226 8.30403 7.63302 8.19775 7.39266L7.38939 5.5644C7.19577 5.1265 6.63619 4.99903 6.27062 5.30821C5.73438 5.76175 5.09812 6.45096 5.02078 7.21449C4.88441 8.56066 5.46174 10.2576 7.64491 12.2952C10.1671 14.6493 12.1868 14.9603 13.5018 14.6417C14.2477 14.4611 14.8438 13.7368 15.22 13.1438C15.4765 12.7395 15.2739 12.2025 14.8137 12.0703Z" fill="white"/>
</g>
<defs>
<clipPath id="clip0_2066_4747">
<rect width="20" height="20" fill="white"/>
</clipPath>
</defs>
</svg>
