<svg width="18" height="18" viewBox="0 0 18 18" fill="none" xmlns="http://www.w3.org/2000/svg">
<g clip-path="url(#clip0_2605_309)">
<path d="M12.6377 0H5.3623C2.40551 0 0 2.40551 0 5.3623V12.6377C0 15.5945 2.40551 18 5.3623 18H12.6377C15.5945 18 18 15.5945 18 12.6377V5.3623C18 2.40551 15.5945 0 12.6377 0ZM16.1892 12.6377C16.1892 14.5991 14.5991 16.1892 12.6377 16.1892H5.3623C3.40088 16.1892 1.8108 14.5991 1.8108 12.6377V5.3623C1.8108 3.40084 3.40088 1.8108 5.3623 1.8108H12.6377C14.5991 1.8108 16.1892 3.40084 16.1892 5.3623V12.6377Z" fill="white"/>
<path d="M8.99997 4.34448C6.43296 4.34448 4.34453 6.43291 4.34453 8.99989C4.34453 11.5669 6.43296 13.6553 8.99997 13.6553C11.567 13.6553 13.6554 11.5669 13.6554 8.99989C13.6554 6.43288 11.567 4.34448 8.99997 4.34448ZM8.99997 11.8446C7.4289 11.8446 6.15533 10.571 6.15533 8.99992C6.15533 7.42886 7.42894 6.15528 8.99997 6.15528C10.571 6.15528 11.8446 7.42886 11.8446 8.99992C11.8446 10.571 10.571 11.8446 8.99997 11.8446Z" fill="white"/>
<path d="M13.6645 5.495C14.2806 5.495 14.7801 4.99555 14.7801 4.37946C14.7801 3.76336 14.2806 3.26392 13.6645 3.26392C13.0484 3.26392 12.549 3.76336 12.549 4.37946C12.549 4.99555 13.0484 5.495 13.6645 5.495Z" fill="white"/>
</g>
<defs>
<clipPath id="clip0_2605_309">
<rect width="18" height="18" fill="white"/>
</clipPath>
</defs>
</svg>
